<?xml version="1.0" encoding="utf-8"?>
<!-- Generator: Adobe Illustrator 22.0.1, SVG Export Plug-In . SVG Version: 6.00 Build 0)  -->
<svg version="1.1" id="Layer_1" xmlns="http://www.w3.org/2000/svg" xmlns:xlink="http://www.w3.org/1999/xlink" x="0px" y="0px"
	 viewBox="0 0 311.8 93.5" style="enable-background:new 0 0 311.8 93.5;" xml:space="preserve">
<style type="text/css">
	.st0{fill:#5A4E5B;}
	.st1{fill:#30D6BC;}
</style>
<g>
	<path class="st0" d="M207.1,56.3c0.6,1.5,1.3,2.9,2.1,4.3c3.3,5.8,7.8,10.4,13.5,13.8c5.7,3.4,12,5.1,18.9,5.1
		c7.6,0,14.5-2.1,20.5-6.4c6-4.2,10.5-9.8,13.4-16.8l-7.4-1.9c-2.4,5.4-5.9,9.7-10.5,12.9c-4.6,3.2-9.9,4.8-15.9,4.8
		c-5.7,0-10.8-1.4-15.3-4.1c-4.5-2.8-8.1-6.5-10.6-11.1c-0.4-0.8-0.8-1.6-1.2-2.4"/>
	<path class="st0" d="M31.7,49.3c7.4,0,13.6-4.6,16.1-11.1l-6.8-1.8c-1.6,3.6-5,6.2-9.3,6.2c-5.9,0-10.5-4.9-10.5-10.9
		c0-5.8,4.6-10.9,10.5-10.9c4.2,0,7.6,2.6,9.3,6.2l6.8-1.8c-2.6-6.6-8.7-11.1-16.1-11.1c-9.6,0-17.5,7.7-17.5,17.5
		C14.2,41.2,21.8,49.3,31.7,49.3"/>
	<path class="st1" d="M280.1,42.5c-5.9,0-10.6-4.9-10.6-10.8c0-5.9,4.6-10.8,10.6-10.8c5.9,0,10.6,4.9,10.6,10.8
		C290.8,37.6,286.1,42.5,280.1,42.5 M280.1,49.3c9.6,0,17.5-8,17.5-17.6c0-9.6-7.8-17.5-17.5-17.5s-17.5,7.9-17.5,17.5
		C262.7,41.3,270.4,49.3,280.1,49.3"/>
	<path class="st0" d="M68.9,42.5c-5.9,0-10.6-4.9-10.6-10.8c0-5.9,4.6-10.8,10.6-10.8c5.9,0,10.6,4.9,10.6,10.8
		C79.5,37.6,74.9,42.5,68.9,42.5 M68.9,49.3c9.6,0,17.5-8,17.5-17.6c0-9.6-7.8-17.5-17.5-17.5s-17.5,7.9-17.5,17.5
		C51.4,41.3,59.2,49.3,68.9,49.3"/>
	<path class="st0" d="M91.1,48.8h7.4V30.6c0-5.1,2.4-9.6,8-9.6c4.4,0,6.9,3.3,6.9,8.7v19.2h7.4V29.5c0.3-4.6,2.8-8.6,7.9-8.6
		c4.4,0,6.9,3.3,6.9,8.7v19.2h7.4V27.9c0-8.9-6.3-13.8-12.8-13.8c-4.5,0-8.9,2.3-11.5,6.4c-2.2-4.2-6.4-6.4-10.7-6.4
		c-4.4,0-7.5,2.2-9.4,5v-4.4h-7.4V48.8z"/>
	<path class="st0" d="M149,48.8h7.4V31.3c0-5.8,3.7-10.2,9.2-10.2c4.4,0,8.3,3.2,8.3,8.9v18.9h7.4V27.9c0-8.7-6.8-13.8-14.3-13.8
		c-4.9,0-8.5,2.3-10.6,5.1v-4.5H149V48.8z"/>
	<path class="st1" d="M202.4,42.5c-5.9,0-10.6-4.9-10.6-10.8c0-5.9,4.6-10.8,10.6-10.8c5.9,0,10.6,4.9,10.6,10.8
		C213.1,37.6,208.4,42.5,202.4,42.5 M202.4,49.3c9.6,0,17.5-8,17.5-17.6c0-9.6-7.8-17.5-17.5-17.5c-9.7,0-17.5,7.9-17.5,17.5
		C185,41.3,192.7,49.3,202.4,49.3"/>
	<path class="st0" d="M242,49.3c7.4,0,13.6-4.6,16.1-11.1l-6.8-1.8c-1.6,3.6-5,6.2-9.3,6.2c-5.9,0-10.5-4.9-10.5-10.9
		c0-5.8,4.6-10.9,10.5-10.9c4.2,0,7.6,2.6,9.3,6.2l6.8-1.8c-2.6-6.6-8.7-11.1-16.1-11.1c-9.6,0-17.5,7.7-17.5,17.5
		C224.5,41.2,232.1,49.3,242,49.3"/>
</g>
</svg>
